<svg xmlns="http://www.w3.org/2000/svg"
     viewBox="0 0 1254 1254">
 <g>
  <path d="m929 659c-41.6 81.9-87.8 161-137 238-42.5 67.1-86.6 133-130 200-10 15.3-20.4 30.5-30.6 45.7-1.27 1.89-2.63 3.72-4.31 6.07-12.5-18.4-24.7-36.3-36.8-54.2-55.7-82-110-165-161-250-46.9-77.3-91.8-156-129-238-16.8-36.7-28.6-74.9-33.6-115-7.09-57.6-0.214-114 20.6-168 28.6-74.5 75.5-135 142-179 43.5-28.7 91.5-46 143-53.3 63.9-9.07 126-3.06 187 19.8 80.7 30.5 141 84.7 184 159 26.4 46.2 42.1 95.9 46.5 149 5.01 60-5.46 118-29.2 173-9.68 22.5-20.7 44.4-31.3 66.9m0.39-98.2c10.6-29.2 17.3-59.2 19-90.2 5.43-102-28.8-189-104-259-49.8-46.5-110-72.8-177-80.8-59.8-7.12-118 0.951-173 25.3-57.1 25.2-103 64-137 116-57.9 89.2-70.5 185-34.5 285 34.2 94.9 102 158 196 193 61.3 22.3 125 26.6 188 9.81 107-28.5 182-94.7 223-199z" fill="#0659B6"/>
  <path d="m929 561c-40.6 104-115 170-222 199-63.3 16.8-127 12.5-188-9.81-94.3-34.4-162-97.8-196-193-36-99.9-23.4-196 34.5-285 34-52.4 80-91.2 137-116 55.2-24.4 113-32.4 173-25.3 67.7 8.05 128 34.3 177 80.8 74.7 69.8 109 157 104 259-1.65 31-8.33 61-19.1 90.5m-256-76.5c1.07-0.462 2.13-0.957 3.21-1.38 62-24.2 124-48.3 186-72.5 6.6-2.57 9.86-6.64 9.67-12.4-0.19-5.81-3.46-9.47-10.5-11.6-11.6-3.48-23.3-6.91-34.9-10.4-63.4-18.8-127-37.8-190-56.2-6.06-1.76-13.5-1.71-19.6 0.0626-75.6 22-151 44.5-227 66.9-6.29 1.86-9.93 6.05-10 11.5-0.108 5.16 3.32 9.66 9.06 11.9 14.3 5.49 28.5 11.1 42.9 16.4 2.96 1.09 3.57 2.68 3.53 5.53-0.154 11.2-0.266 22.3 0.0276 33.5 0.111 4.21-1.11 7.25-4.12 10.1-3.39 3.19-6.45 6.74-9.49 10.3-3.9 4.55-3.95 9.43-0.0525 14 4.11 4.81 8.35 9.52 12.7 14.1 3.93 4.17 9.18 4.33 13.2 0.25 4.57-4.61 8.97-9.41 13.2-14.4 4.02-4.73 3.77-9.7-0.411-14.4-3.32-3.73-6.86-7.28-10.1-11-1.15-1.31-2.57-3.02-2.6-4.58-0.214-12.1-0.118-24.2-0.118-36.8 2.33 0.824 4.04 1.38 5.71 2.03 53.5 20.7 107 41.5 161 62.3 8.12 3.15 16.2 3.48 24.3 0.276 11.3-4.43 22.7-8.79 34.7-13.5m89 65.8c0.878-2.77 2.46-5.53 2.51-8.32 0.203-10.5-0.15-21-0.185-31.5-0.0529-15.8-0.0137-31.6-0.0137-47.9-1.94 0.612-2.89 0.836-3.77 1.2-39.9 16.3-79.8 32.6-120 48.9-9.42 3.87-18.7 4.19-28.2 0.352-28.9-11.7-57.7-23.3-86.6-34.9-10.3-4.14-20.6-8.28-31.1-12.5-0.096 1.39-0.192 2.2-0.203 3.02-0.324 24.2-0.548 48.3-1.04 72.5-0.0927 4.57 1.08 8.46 4.57 11 6.39 4.74 12.7 9.79 19.8 13.3 65.6 32.7 133 35.8 201 9.29 15.2-5.9 30-12.8 42.9-24.5z" fill="#FDFDFE"/>
  <path d="m673 485c-11.7 4.53-23 8.9-34.3 13.3-8.17 3.2-16.2 2.88-24.3-0.276-53.5-20.8-107-41.5-161-62.3-1.67-0.648-3.38-1.2-5.71-2.03 0 12.7-0.0956 24.8 0.118 36.8 0.0274 1.55 1.45 3.26 2.6 4.58 3.28 3.76 6.82 7.31 10.1 11 4.18 4.7 4.43 9.67 0.411 14.4-4.2 4.95-8.61 9.74-13.2 14.4-4.04 4.09-9.29 3.92-13.2-0.25-4.34-4.61-8.58-9.31-12.7-14.1-3.89-4.56-3.85-9.44 0.0525-14 3.04-3.54 6.1-7.09 9.49-10.3 3.01-2.84 4.23-5.88 4.12-10.1-0.294-11.2-0.181-22.3-0.0276-33.5 0.0393-2.86-0.572-4.44-3.53-5.53-14.3-5.31-28.6-10.9-42.9-16.4-5.74-2.21-9.16-6.71-9.06-11.9 0.115-5.46 3.76-9.65 10-11.5 75.5-22.4 151-44.9 227-66.9 6.07-1.77 13.5-1.82 19.6-0.0626 63.5 18.4 127 37.4 190 56.2 11.6 3.45 23.3 6.88 34.9 10.4 7.05 2.11 10.3 5.77 10.5 11.6 0.187 5.74-3.07 9.81-9.67 12.4-62 24.1-124 48.3-186 72.5-1.09 0.423-2.14 0.918-3.57 1.52z" fill="#0558B6"/>
  <path d="m762 551c-12.6 11.4-27.4 18.3-42.6 24.2-68.3 26.5-135 23.4-201-9.29-7.07-3.52-13.4-8.58-19.8-13.3-3.49-2.59-4.66-6.47-4.57-11 0.49-24.2 0.714-48.3 1.04-72.5 0.0109-0.816 0.107-1.63 0.203-3.02 10.6 4.25 20.9 8.39 31.1 12.5 28.9 11.6 57.8 23.2 86.6 34.9 9.48 3.84 18.7 3.52 28.2-0.352 39.9-16.4 79.8-32.6 120-48.9 0.887-0.362 1.83-0.587 3.77-1.2 0 16.3-0.0392 32.1 0.0137 47.9 0.0352 10.5 0.388 21 0.185 31.5-0.0539 2.79-1.63 5.55-2.75 8.6z" fill="#0659B6"/>
 </g>
</svg>
