<svg version="1.1" id="Layer_1" xmlns="http://www.w3.org/2000/svg" xmlns:xlink="http://www.w3.org/1999/xlink" x="0px" y="0px"
	 width="100%" viewBox="0 0 1254 1254" enable-background="new 0 0 1254 1254" xml:space="preserve">
<path fill="#FEFEFE" opacity="1.000000" stroke="none" 
	d="
M741.000000,1255.000000 
	C494.000000,1255.000000 247.500000,1255.000000 1.000000,1255.000000 
	C1.000000,837.000000 1.000000,419.000000 1.000000,1.000000 
	C419.000000,1.000000 837.000000,1.000000 1255.000000,1.000000 
	C1255.000000,419.000000 1255.000000,837.000000 1255.000000,1255.000000 
	C1083.833374,1255.000000 912.666687,1255.000000 741.000000,1255.000000 
M929.270569,658.770447 
	C939.699951,636.615662 950.757751,614.731445 960.434265,592.252563 
	C984.149841,537.160767 994.621094,479.612427 989.610352,419.649445 
	C985.175903,366.584503 969.498108,316.863586 943.065308,270.650604 
	C900.418091,196.089539 839.877502,141.854248 759.187012,111.351868 
	C698.742859,88.502922 636.229309,82.496376 572.302490,91.563477 
	C520.743530,98.876373 472.737915,116.145164 429.209595,144.850967 
	C362.380219,188.923233 315.477722,249.146561 286.907593,323.683929 
	C266.141754,377.860474 259.262451,433.922699 266.355621,491.539429 
	C271.297546,531.681824 283.158875,569.919556 299.923676,606.622009 
	C337.547455,688.990356 382.494751,767.398804 429.392639,844.727661 
	C480.778259,929.456238 534.929993,1012.404846 590.614075,1094.360718 
	C602.772522,1112.255493 614.938599,1130.145386 627.460083,1148.565430 
	C629.132324,1146.214722 630.496155,1144.388306 631.765625,1142.498535 
	C641.980652,1127.292236 652.335022,1112.176636 662.353394,1096.841675 
	C705.803833,1030.332153 749.833252,964.187744 792.363525,897.093811 
	C841.309204,819.879089 887.527832,741.018188 929.270569,658.770447 
z"/>
<path fill="#0659B6" opacity="1.000000" stroke="none" 
	d="
M929.105042,659.102905 
	C887.527832,741.018188 841.309204,819.879089 792.363525,897.093811 
	C749.833252,964.187744 705.803833,1030.332153 662.353394,1096.841675 
	C652.335022,1112.176636 641.980652,1127.292236 631.765625,1142.498535 
	C630.496155,1144.388306 629.132324,1146.214722 627.460083,1148.565430 
	C614.938599,1130.145386 602.772522,1112.255493 590.614075,1094.360718 
	C534.929993,1012.404846 480.778259,929.456238 429.392639,844.727661 
	C382.494751,767.398804 337.547455,688.990356 299.923676,606.622009 
	C283.158875,569.919556 271.297546,531.681824 266.355621,491.539429 
	C259.262451,433.922699 266.141754,377.860474 286.907593,323.683929 
	C315.477722,249.146561 362.380219,188.923233 429.209595,144.850967 
	C472.737915,116.145164 520.743530,98.876373 572.302490,91.563477 
	C636.229309,82.496376 698.742859,88.502922 759.187012,111.351868 
	C839.877502,141.854248 900.418091,196.089539 943.065308,270.650604 
	C969.498108,316.863586 985.175903,366.584503 989.610352,419.649445 
	C994.621094,479.612427 984.149841,537.160767 960.434265,592.252563 
	C950.757751,614.731445 939.699951,636.615662 929.105042,659.102905 
M929.495178,560.933472 
	C940.133850,531.782166 946.814392,501.754272 948.461182,470.756439 
	C953.888916,368.591095 919.623779,281.854340 844.938232,212.076843 
	C795.123901,165.536118 735.157898,139.285141 667.487122,131.230240 
	C607.641907,124.106834 549.765808,132.180908 494.549713,156.546463 
	C437.453003,181.741898 391.462830,220.532578 357.479370,272.906677 
	C299.619293,362.078461 287.009613,457.697052 323.003448,557.632263 
	C357.192902,652.557556 424.782745,716.015747 519.082520,750.396545 
	C580.378845,772.744629 643.669434,777.035461 706.930237,760.206787 
	C814.166016,731.680115 888.741638,665.484924 929.495178,560.933472 
z"/>
<path fill="#FDFDFE" opacity="1.000000" stroke="none" 
	d="
M929.355347,561.297729 
	C888.741638,665.484924 814.166016,731.680115 706.930237,760.206787 
	C643.669434,777.035461 580.378845,772.744629 519.082520,750.396545 
	C424.782745,716.015747 357.192902,652.557556 323.003448,557.632263 
	C287.009613,457.697052 299.619293,362.078461 357.479370,272.906677 
	C391.462830,220.532578 437.453003,181.741898 494.549713,156.546463 
	C549.765808,132.180908 607.641907,124.106834 667.487122,131.230240 
	C735.157898,139.285141 795.123901,165.536118 844.938232,212.076843 
	C919.623779,281.854340 953.888916,368.591095 948.461182,470.756439 
	C946.814392,501.754272 940.133850,531.782166 929.355347,561.297729 
M673.297729,484.829498 
	C674.368408,484.367981 675.425964,483.872986 676.511597,483.449799 
	C738.496765,459.288574 800.481750,435.126953 862.474976,410.986633 
	C869.078979,408.415039 872.331238,404.343903 872.144043,398.605316 
	C871.954468,392.792725 868.679077,389.133728 861.628540,387.022827 
	C849.998962,383.541046 838.353394,380.112549 826.715332,376.659210 
	C763.351257,357.857452 700.030212,338.907440 636.554443,320.490448 
	C630.493408,318.731873 623.026184,318.785095 616.956238,320.553070 
	C541.355957,342.572418 465.893311,365.064178 390.396149,387.437653 
	C384.107147,389.301392 380.466095,393.488983 380.351532,398.949890 
	C380.243317,404.107727 383.667969,408.614136 389.406555,410.821899 
	C403.683014,416.314270 417.927063,421.894745 432.272156,427.201904 
	C435.227844,428.295380 435.839081,429.877319 435.799744,432.733398 
	C435.646118,443.895020 435.533569,455.065155 435.827332,466.221008 
	C435.938080,470.427399 434.721069,473.466187 431.708862,476.302582 
	C428.322113,479.491669 425.256439,483.040802 422.220428,486.578613 
	C418.319305,491.124573 418.274414,496.007874 422.167908,500.564911 
	C426.278900,505.376404 430.521240,510.082855 434.859283,514.691040 
	C438.785004,518.861206 444.034882,519.025818 448.077759,514.940735 
	C452.644470,510.326324 457.050751,505.532349 461.252808,500.583832 
	C465.268311,495.854980 465.018158,490.880310 460.841888,486.183441 
	C457.522064,482.449768 453.985962,478.907135 450.702972,475.142700 
	C449.557098,473.828857 448.135315,472.119019 448.107880,470.567566 
	C447.894012,458.478851 447.989655,446.384674 447.989655,433.718750 
	C450.320251,434.543091 452.027588,435.097351 453.698578,435.745178 
	C507.217957,456.494354 560.739563,477.237854 614.244141,498.025208 
	C622.363403,501.179657 630.419006,501.502899 638.590759,498.301331 
	C649.906677,493.867798 661.251038,489.506531 673.297729,484.829498 
M762.319031,550.617737 
	C763.196899,547.845459 764.774231,545.086609 764.828125,542.298462 
	C765.030762,531.809326 764.678284,521.310791 764.643127,510.815430 
	C764.590210,495.030701 764.629395,479.245697 764.629395,462.897278 
	C762.687256,463.509033 761.744324,463.733673 760.857544,464.095703 
	C720.950256,480.387024 681.029541,496.645813 641.158508,513.025391 
	C631.742493,516.893555 622.490173,517.213928 613.008423,513.377014 
	C584.157715,501.702271 555.269592,490.120056 526.395874,478.502197 
	C516.108704,474.363007 505.821136,470.224915 495.251892,465.972931 
	C495.155853,467.360931 495.059662,468.175537 495.048737,468.991272 
	C494.724640,493.145081 494.500885,517.300964 494.010986,541.451355 
	C493.918304,546.020264 495.087769,549.909058 498.579315,552.495239 
	C504.973297,557.231384 511.327301,562.284058 518.394531,565.807861 
	C583.984131,598.512024 651.107056,601.584717 719.442810,575.100098 
	C734.668274,569.199280 749.455566,562.255676 762.319031,550.617737 
z"/>
<path fill="#0558B6" opacity="1.000000" stroke="none" 
	d="
M672.940430,484.971924 
	C661.251038,489.506531 649.906677,493.867798 638.590759,498.301331 
	C630.419006,501.502899 622.363403,501.179657 614.244141,498.025208 
	C560.739563,477.237854 507.217957,456.494354 453.698578,435.745178 
	C452.027588,435.097351 450.320251,434.543091 447.989655,433.718750 
	C447.989655,446.384674 447.894012,458.478851 448.107880,470.567566 
	C448.135315,472.119019 449.557098,473.828857 450.702972,475.142700 
	C453.985962,478.907135 457.522064,482.449768 460.841888,486.183441 
	C465.018158,490.880310 465.268311,495.854980 461.252808,500.583832 
	C457.050751,505.532349 452.644470,510.326324 448.077759,514.940735 
	C444.034882,519.025818 438.785004,518.861206 434.859283,514.691040 
	C430.521240,510.082855 426.278900,505.376404 422.167908,500.564911 
	C418.274414,496.007874 418.319305,491.124573 422.220428,486.578613 
	C425.256439,483.040802 428.322113,479.491669 431.708862,476.302582 
	C434.721069,473.466187 435.938080,470.427399 435.827332,466.221008 
	C435.533569,455.065155 435.646118,443.895020 435.799744,432.733398 
	C435.839081,429.877319 435.227844,428.295380 432.272156,427.201904 
	C417.927063,421.894745 403.683014,416.314270 389.406555,410.821899 
	C383.667969,408.614136 380.243317,404.107727 380.351532,398.949890 
	C380.466095,393.488983 384.107147,389.301392 390.396149,387.437653 
	C465.893311,365.064178 541.355957,342.572418 616.956238,320.553070 
	C623.026184,318.785095 630.493408,318.731873 636.554443,320.490448 
	C700.030212,338.907440 763.351257,357.857452 826.715332,376.659210 
	C838.353394,380.112549 849.998962,383.541046 861.628540,387.022827 
	C868.679077,389.133728 871.954468,392.792725 872.144043,398.605316 
	C872.331238,404.343903 869.078979,408.415039 862.474976,410.986633 
	C800.481750,435.126953 738.496765,459.288574 676.511597,483.449799 
	C675.425964,483.872986 674.368408,484.367981 672.940430,484.971924 
z"/>
<path fill="#0659B6" opacity="1.000000" stroke="none" 
	d="
M762.075562,550.898193 
	C749.455566,562.255676 734.668274,569.199280 719.442810,575.100098 
	C651.107056,601.584717 583.984131,598.512024 518.394531,565.807861 
	C511.327301,562.284058 504.973297,557.231384 498.579315,552.495239 
	C495.087769,549.909058 493.918304,546.020264 494.010986,541.451355 
	C494.500885,517.300964 494.724640,493.145081 495.048737,468.991272 
	C495.059662,468.175537 495.155853,467.360931 495.251892,465.972931 
	C505.821136,470.224915 516.108704,474.363007 526.395874,478.502197 
	C555.269592,490.120056 584.157715,501.702271 613.008423,513.377014 
	C622.490173,517.213928 631.742493,516.893555 641.158508,513.025391 
	C681.029541,496.645813 720.950256,480.387024 760.857544,464.095703 
	C761.744324,463.733673 762.687256,463.509033 764.629395,462.897278 
	C764.629395,479.245697 764.590210,495.030701 764.643127,510.815430 
	C764.678284,521.310791 765.030762,531.809326 764.828125,542.298462 
	C764.774231,545.086609 763.196899,547.845459 762.075562,550.898193 
z"/>
</svg>